<svg xmlns="http://www.w3.org/2000/svg" width="22" height="15" viewBox="0 0 22 15">
  <path d="M3.53,5.48c-.29.01-.45.35-.29.58.09.13.69.42.86.5.96.47,1.99.82,3.01,1.13.11.9,1.25,1.24,1.81.51.7-.93-.53-2.11-1.42-1.4-.08.06-.14.2-.25.17-.93-.3-1.87-.61-2.76-1.03-.26-.12-.58-.35-.83-.44-.05-.02-.09-.03-.14-.03Z" style="fill: #4367ac;"/>
  <path d="M21.58,10.4c-.1,1.89-1.57,3.48-3.47,3.68-4.67.04-9.34.04-14.01,0-3.17-.34-4.82-4.14-2.81-6.65.12-.15.21-.3.43-.18.99.64,2.04,1.22,3.15,1.63.33.12.69.21,1,.34.38.16.72.51,1.08.74.49.31.86.39,1.38.58.83.31,1.37.96,1.92,1.62.22.27.61.94,1.04.83.1-.03.19-.15.21-.25.05-.41-.44-1.03-.65-1.38-.17-.29-.52-.89-.47-1.22.04-.23.51-.06.65-.01.78.27,2,1.09,2.79,1.06.4-.02.71-.24.4-.63-.48-.62-1.67-1.1-2.32-1.57-.12-.09-.29-.2-.26-.37,1.01-.01,2.01.18,3.01.27.36.03,1.19.11,1.4-.28s-.33-.57-.61-.67c-1.06-.39-2.35-.44-3.36-.86-.08-.03-.27-.11-.27-.2.01-.1.15-.14.24-.18.79-.31,1.8-.4,2.6-.71.22-.09.64-.33.52-.63-.11-.26-.79-.26-1.03-.25-.93,0-1.95.08-2.88.02-.27-.02-.64-.03-.38-.36.24-.31.68-.61.96-.92s.85-1.22.54-1.63c-.28-.37-.64.18-.84.36-.72.66-1.54,1.29-2.32,1.88-.36.27-1.4,1.08-1.83,1.07-.4-.01-1.28-.31-1.68-.46-.14-.05-.52-.18-.62-.25-.2-.15.06-.51.15-.67,1.28-2.25,3.83-3.51,6.41-3.19,2.8.35,5.11,2.56,5.54,5.35.06.04.11,0,.17,0,.54,0,1,.01,1.52.18,1.52.49,2.61,1.91,2.7,3.5v.41Z" style="fill: #4367ac;"/>
</svg>