<?xml version="1.0" encoding="UTF-8"?>
<svg id="Capa_2" data-name="Capa 2" xmlns="http://www.w3.org/2000/svg" xmlns:xlink="http://www.w3.org/1999/xlink" viewBox="0 0 445 461.39">
  <defs>
    <style>
      .cls-1 {
        fill: url(#Degradado_sin_nombre_9-2);
      }

      .cls-2 {
        fill: #fff;
      }

      .cls-3 {
        fill: url(#Degradado_sin_nombre_9-4);
      }

      .cls-4 {
        fill: url(#Degradado_sin_nombre_9-3);
      }

      .cls-5 {
        fill: #dc2727;
      }

      .cls-6 {
        fill: url(#Degradado_sin_nombre_9);
      }

      .cls-7 {
        fill: #3f3f3f;
      }

      .cls-8 {
        fill: #38408d;
      }
    </style>
    <linearGradient id="Degradado_sin_nombre_9" data-name="Degradado sin nombre 9" x1="215.73" y1="231.52" x2="215.73" y2="84.54" gradientUnits="userSpaceOnUse">
      <stop offset="0" stop-color="#38408d"/>
      <stop offset=".99" stop-color="#8fcfe8"/>
    </linearGradient>
    <linearGradient id="Degradado_sin_nombre_9-2" data-name="Degradado sin nombre 9" x1="222.47" y1="316.01" x2="222.47" y2="16.01" xlink:href="#Degradado_sin_nombre_9"/>
    <linearGradient id="Degradado_sin_nombre_9-3" data-name="Degradado sin nombre 9" x1="215.35" y1="149.4" x2="215.35" y2="95.31" xlink:href="#Degradado_sin_nombre_9"/>
    <linearGradient id="Degradado_sin_nombre_9-4" data-name="Degradado sin nombre 9" x1="212.82" y1="221.41" x2="212.82" y2="168.57" xlink:href="#Degradado_sin_nombre_9"/>
  </defs>
  <rect class="cls-2" x="55.91" y="1" width="333.18" height="330" rx="30" ry="30"/>
  <g>
    <path class="cls-6" d="M280.28,226.83v4.39c-1.36.36-51.69.43-53.75.05v-4.43c.9,0,1.74.04,2.58-.01,2.02-.11,4.1-.02,6.05-.46,4.32-.98,7.32-3.55,8.08-8.12.48-2.87.9-5.78.92-8.67.1-15.68.07-31.37.08-47.05,0-.36-.05-.72-.07-1.06-1.4-.38-54.18-.5-56.82-.13-.04.5-.12,1.04-.12,1.57,0,15.13-.04,30.25.04,45.38.02,3.33.4,6.67.74,9.99.24,2.34,1.48,4.17,3.36,5.55,2.56,1.87,5.37,3,8.57,3h4.86c.41,1.56.23,3.01.13,4.56h-53.56c-.39-1.41-.42-2.62-.05-4.55,1.17,0,2.39.05,3.6-.01,1.65-.09,3.35-.08,4.95-.45,4.57-1.07,7.52-3.85,8.2-8.67.35-2.51.56-5.04.73-7.57.12-1.8.08-3.6.08-5.4v-93.35c0-4.46-.04-8.92-.72-13.35-.41-2.69-1.77-4.71-3.97-6.21-2.62-1.79-5.54-2.63-8.7-2.66-1.4-.02-2.8,0-4.31,0v-4.24c1.23-.4,50.8-.56,53.86-.12v4.35c-1.46,0-2.74.01-4.01,0-3.02-.03-5.84.65-8.48,2.17-2.53,1.45-4.09,3.6-4.52,6.45-.39,2.56-.71,5.17-.72,7.76-.08,15.18-.07,30.37-.08,45.56,0,.36.05.72.07,1.06,1.38.4,54.25.53,56.83.13.04-.49.11-1.03.11-1.57,0-14.26.04-28.51-.04-42.77-.02-3.27-.39-6.55-.69-9.82-.24-2.63-1.64-4.6-3.76-6.11-2.65-1.88-5.6-2.81-8.83-2.85-1.4-.02-2.81,0-4.36,0v-4.44h53.78c.02.7.05,1.42.06,2.13,0,.67,0,1.35,0,2.27-1.42.01-2.68.03-3.95.03-2.3.01-4.52.38-6.68,1.23-4.15,1.65-6.39,4.67-6.73,9.13-.17,2.22-.4,4.45-.4,6.68-.03,9.17-.04,18.34-.04,27.51h-.01v54.32h.01c.01,7.47.02,14.94.06,22.41.01,2.59.39,5.18.68,7.77.3,2.56,1.68,4.49,3.75,5.92,2.44,1.69,5.13,2.68,8.12,2.7,1.65.01,3.3,0,5.06,0Z"/>
    <path class="cls-1" d="M373.95,160.91h-5.47c-3.27,0-6.52.29-9.7,1.07-5.53,1.37-10.13,4.14-13.27,9.05-1.7,2.65-2.49,5.64-3.09,8.69-1.54,7.83-1.69,15.76-1.7,23.7-.04,28.2-.02,56.41-.02,84.61v2.38c-.5.28-.86.5-1.24.7-16.38,8.46-33.42,15.16-51.38,19.38-9.12,2.14-18.36,3.52-27.69,4.41-10.69,1.02-21.39,1.3-32.11,1-21.1-.6-41.83-3.52-61.79-10.72-40.84-14.75-69.45-42.52-86.09-82.76-4.51-10.93-7.1-22.4-8.47-34.15-1.17-9.95-1.38-19.91-.56-29.88,1.55-18.8,6.58-36.63,14.88-53.54,10.64-21.68,24.9-40.52,43.65-55.79,19.46-15.85,41.46-26.01,66.15-30.29,14.82-2.56,29.72-3.24,44.71-2.44,13.82.75,27.14,3.95,40.22,8.26,7.37,2.42,14.69,4.99,22.06,7.4,2.4.79,4.85,1.41,7.32,1.91,4.62.93,8.45-1.16,10.34-5.5,1.07-2.46,1.53-5.09,1.86-7.74.19-1.47.32-2.95.5-4.55h8.65c2.56,30.18,5.12,60.35,7.69,90.75-1.49.03-2.87.06-4.26.07-1.41,0-2.82,0-4.35,0-.3-.78-.59-1.51-.86-2.25-3.99-11.11-8.83-21.8-15.29-31.69-13.51-20.67-32.51-33.26-56.38-38.58-11.56-2.57-23.28-3.1-35.08-2.3-12.06.82-23.76,3.26-34.93,7.99-15.71,6.66-28.49,17.08-38.67,30.76-11.43,15.35-18.99,32.51-23.3,51.15-3.47,15-4.66,30.21-4.2,45.58.44,14.88,2.55,29.49,6.76,43.76,4.78,16.23,11.88,31.34,21.64,45.15,15.03,21.25,35.45,34.55,60.26,41.29,12.33,3.35,24.87,3.94,37.56,2.72,16.64-1.6,32.29-6.39,47.11-14.13,1.45-.76,1.98-1.58,1.98-3.27-.06-26.78-.03-53.55-.05-80.33-.01-6.39-.15-12.77-1.02-19.11-.29-2.08-.6-4.19-1.22-6.19-2.21-7.1-7.18-11.53-13.98-14.01-2.84-1.03-5.78-1.54-8.76-1.86-1.31-.14-2.62-.25-3.93-.35-1.84-.15-3.68-.18-5.67-.27-.16,0,0,0-.16,0v-8.61s-.02,0,.05,0c3.24.12,6.47.12,9.71.1,2.03-.01,4.06-.02,6.09-.01,5.29.02,10.59,0,15.89,0h79.62c.14,2.88.14,5.56-.01,8.45Z"/>
    <path class="cls-4" d="M198.31,149.29c.18-.26.35-.52.52-.77,1.46-2.09,2.82-2.58,5.25-1.81.94.3,1.85.67,2.77,1.03,3.56,1.41,7.25,1.9,11.05,1.56,5.34-.47,9.84-2.64,13.22-6.89,2.83-3.56,3.68-7.62,2.77-12.07-.75-3.64-2.82-6.41-5.69-8.63-2.84-2.21-6-3.88-9.21-5.46-2.49-1.22-5.01-2.39-7.42-3.74-1.44-.8-2.84-1.78-4.02-2.92-2.99-2.89-2.64-6.83.79-9.18.89-.61,1.97-1.04,3.03-1.28,3.07-.7,6-.15,8.74,1.35,4.22,2.31,6.94,5.84,8.22,10.5.18.64.35,1.28.53,1.91h2.11c-.14-5.85-.27-11.59-.41-17.39h-1.72c-.12.34-.22.57-.28.81-.61,2.58-1.65,2.94-4.05,2.04-.69-.26-1.35-.6-2.04-.86-1.26-.49-2.51-1.06-3.81-1.4-4.8-1.23-9.55-1.13-14.02,1.24-9.45,5-10.87,16.61-3.46,23.51,1.26,1.17,2.63,2.27,4.1,3.14,2.48,1.48,5.08,2.77,7.64,4.12,2.23,1.18,4.5,2.3,6.7,3.53,1.57.88,2.91,2.08,3.9,3.63,1.72,2.7,1.44,5.68-.73,8.02-1.08,1.16-2.37,1.96-3.89,2.38-2.12.59-4.27.65-6.4.16-5.17-1.19-8.98-4.28-11.45-8.93-1-1.89-1.61-4-2.31-6.05-.48-1.4-.41-1.42-2.15-1.08v19.52h1.72Z"/>
    <path class="cls-3" d="M232.42,168.57h-28.66v1.94c1.26,0,2.42-.07,3.57.01,2.71.2,3.98,1.47,4.27,4.16.06.55.08,1.11.08,1.67,0,10.84,0,21.68-.03,32.52,0,1.61-.14,3.22-.3,4.82-.15,1.47-.63,2.85-2.08,3.49-1.94.86-3.86.61-5.63-.53-.99-.64-1.1-1.3-.5-2.38.42-.76.94-1.45,1.4-2.18.76-1.22.95-2.52.59-3.92-.7-2.75-3.18-4.36-6.38-4.15-2.91.19-5.21,2.41-5.49,5.31-.3,3.01.92,5.42,2.96,7.5,2.72,2.78,6.1,4.1,9.89,4.46,4.73.45,9.2-.25,13.2-3.04,2.64-1.84,4.51-4.26,5-7.5.38-2.5.66-5.04.69-7.56.09-8.42.03-16.85.05-25.27,0-1.11.08-2.23.13-3.34.12-2.73,1.63-3.86,4.32-4.06.91-.07,1.82-.01,2.86-.01.03-.73.06-1.25.09-1.93Z"/>
    <g>
      <path class="cls-8" d="M398.24,372.14c-.26-.74-.17-1.3.72-1.52,4.1-1.03,8.17-2.2,12.31-3.06,3.26-.68,4.9.38,6.25,3.45,1.23,2.8,1.75,5.79,1.98,8.81.42,5.44.33,10.86-.98,16.2-.64,2.6-1.55,5.09-3.45,7.06-.49.51-.54,1-.37,1.67,2.15,8.8,4.26,17.62,6.42,26.42.33,1.37.73,2.71,1.84,3.76.38.36.35,1.15.55,1.92h-7.41c-.26-.98-.54-1.97-.78-2.97-2.19-8.92-4.37-17.85-6.57-26.77-.35-1.42-.38-1.42-1.88-1.09-.04.45-.11.93-.11,1.41.01,7.22.02,14.45.06,21.67,0,1.05.12,2.09.23,3.13.19,1.76.93,3.06,2.9,3.28v1.56h-11.67c-.31-.78-.28-1.36.65-1.56,1.29-.27,1.79-1.27,1.99-2.39.22-1.21.37-2.45.38-3.67.04-5.99.02-11.98.02-17.97,0-10.44.02-20.87.01-31.31,0-1.66,0-3.34-.21-4.99-.28-2.36-.66-2.66-2.91-3.05ZM406.88,372.33v29.78c3.15-.07,4.69-1.14,5.69-3.88.23-.63.42-1.29.56-1.95,1.27-5.98,1.21-12,.47-18.03-.19-1.51-.58-3.04-1.14-4.45-.75-1.89-2.05-2.42-3.99-1.94-.52.13-1.04.31-1.58.47ZM438.29,417.35c.34-2.33.23-38.46-.21-39.77-.14.5-.2,1.01-.25,1.53-.26,3.2-.41,6.41-.83,9.59-.25,1.87-.81,3.73-1.45,5.51-.38,1.07-1.11,2.07-2.66,1.87v-30.72c1.34-.34,2.62-.7,3.92-1,1.28-.3,2.36.14,3.02,1.25.63,1.05,1.28,2.15,1.55,3.32.53,2.34.85,4.73,1.18,7.11.22,1.61.32,3.23.52,5.27.55-1.65.68-20.72.28-23.34-.71.21-1.4.41-2.1.61-5.35,1.6-10.69,3.23-16.04,4.8-.95.28-1.62.6-1.18,1.75,2.05.35,2.49.77,2.89,2.9.13.72.18,1.47.18,2.21,0,19.7,0,39.4-.01,59.1,0,.86-.12,1.72-.24,2.57-.25,1.76-.87,3.24-2.96,3.38v1.35c1.86.36,18.83.21,20.32-.2.31-8.15.8-16.33.77-24.54-.31.81-.42,1.64-.54,2.47-.39,2.69-.71,5.38-1.2,8.05-.47,2.55-1.17,5.04-2.52,7.31-1.22,2.05-2.97,3.05-5.35,2.92-1.28-.07-1.79-.36-2.1-1.64-.26-1.07-.4-2.19-.41-3.29-.05-8.58-.06-17.17-.07-25.75,0-.47.1-.93.16-1.41,1.34-.2,2.2.33,2.65,1.39.44,1.01.86,2.08,1.01,3.15.46,3.42.8,6.86,1.17,10.29.07.65.07,1.3.1,1.95.13,0,.26,0,.39,0ZM1.15,438.06c.29-1.06.51-2.15.9-3.18.49-1.28,1.08-1.38,1.99-.38.87.95,1.61,2.04,2.54,2.92,1.56,1.48,3.58,1.44,5.1-.07.64-.64,1.22-1.41,1.62-2.23.64-1.32,1.19-2.71,1.63-4.11,1.05-3.37,1.52-6.86,1.7-10.38.54-10.15-.71-19.96-5.65-29.04-1.3-2.38-2.58-4.77-3.89-7.14-1.68-3.07-2.71-6.35-3.02-9.83-.34-3.85-.14-7.65,1.32-11.29.44-1.09.97-2.26,2.31-2.39,1.44-.14,2.26.95,2.78,2.06.76,1.61,1.44,3.28,1.93,4.98,1.28,4.47,1.64,9.09,1.86,13.72.03.61-.15,1.28.62,1.79.27-8.26.53-16.51.8-24.77-.14-.02-.28-.04-.42-.06-.12.74-.17,1.51-.36,2.23-.21.77-.06,1.78-1.24,2.22-.42-.6-.86-1.17-1.24-1.78-.56-.88-1.01-1.84-1.62-2.69-2.11-2.93-4.63-2.85-6.59.2-.4.62-.76,1.28-1.02,1.96-.52,1.38-1.03,2.77-1.42,4.2-1.08,3.95-1.4,8.01-1.66,12.08-.54,8.62.8,16.86,4.88,24.54,1.33,2.5,2.75,4.96,4.16,7.42,1.83,3.19,3.09,6.58,3.54,10.25.48,3.89.57,7.77-.62,11.56-.31.98-.77,1.97-1.38,2.79-.94,1.25-2.19,1.31-3.35.27-.58-.52-1.11-1.18-1.48-1.87-.61-1.13-1.15-2.32-1.59-3.53-1.59-4.31-2.35-8.81-2.94-13.34-.27-2.09-.51-4.18-.76-6.27-.11.01-.22.02-.33.03.19,9.71.39,19.42.58,29.12.11,0,.23,0,.34,0ZM97.6,408.16c.02-6.92.48-12.45,2.53-17.7.82-2.11,1.82-4.21,3.11-6.06,2.65-3.82,6.55-4.45,10.48-1.95,2.15,1.36,3.57,3.36,4.68,5.6,1.77,3.57,2.72,7.4,3.31,11.32.86,5.76,1.13,11.55.76,17.36-.29,4.58-1.09,9.08-2.92,13.31-.75,1.73-1.69,3.46-2.89,4.9-3.17,3.8-8,3.85-11.45.32-1.48-1.52-2.51-3.34-3.35-5.27-1.88-4.27-2.97-8.76-3.53-13.37-.39-3.24-.56-6.51-.71-8.45ZM116.26,410.8c0-3.27.08-6.54-.02-9.8-.13-3.88-.36-7.78-1.45-11.53-.42-1.46-1.02-2.93-1.87-4.18-1.56-2.31-3.86-2.25-5.37.07-.7,1.07-1.21,2.29-1.62,3.5-1.18,3.53-1.6,7.21-1.88,10.9-.51,6.73-.27,13.44.41,20.14.36,3.56.89,7.11,2.14,10.48.44,1.19,1.05,2.39,1.86,3.35,1.35,1.6,3.45,1.47,4.77-.17.49-.61.91-1.34,1.16-2.08.47-1.4.89-2.82,1.16-4.27,1-5.43,1.01-10.92.7-16.41ZM53.19,368.78c-2.77-.66-5.42-1.29-8.52-2.02.34.93.38,1.63.74,1.92,1.03.84,1.44,1.95,1.79,3.15.71,2.45.91,4.92.83,7.49-.23,8.15-.39,16.3-.36,24.44.02,7.35.34,14.69.49,22.04.03,1.6-.08,3.21-.2,4.8-.17,2.12-.73,4.03-3.11,4.69.08.55.14.96.2,1.38h8.03v-1.4c-1.74-.27-2.48-1.54-2.85-3.02-.33-1.31-.62-2.66-.67-4-.27-8.02-.56-16.05-.65-24.07-.08-6.85.09-13.71.17-20.56,0-.47.12-.94.19-1.4.43.67.6,1.32.75,1.97,4.17,17.86,9.82,35.28,15.21,52.78.1.34.38.62.57.93.3-.59.31-1.07.3-1.54-.15-7.41-.23-14.82-.48-22.23-.37-11.24-.24-22.47.19-33.71.04-.98.17-1.97.35-2.94.3-1.65.89-3.11,2.89-3.42-.03-.56-.05-1.02-.07-1.54-2.54-.5-4.9-1.31-7.74-1.65.29.72.34,1.33.63,1.5,1.99,1.14,2.34,3.08,2.49,5.08.13,1.72.17,3.46.12,5.18-.24,8.77-.54,17.53-.14,26.3.03.59,0,1.18,0,1.78-5.08-13.62-7.99-27.79-11.17-41.93ZM44,436.7h-11.19c-.06-.47-.12-.92-.16-1.22.82-.56,1.71-.89,2.12-1.54.42-.67.59-1.66.5-2.47-.34-3.25-.8-6.48-1.25-9.72-.26-1.83-.6-3.65-.95-5.69-2.75-.19-5.46-.37-8.32-.56-.15,1.08-.31,1.98-.39,2.88-.31,3.38-.61,6.76-.87,10.14-.06.73.03,1.48.12,2.21.37,2.92.48,3.06,3,4.42.03.21.08.45.08.69,0,.24-.06.48-.11.83h-7.55c.07-.67-.11-1.52.23-1.89,1.7-1.87,2.02-4.21,2.34-6.51.82-5.93,1.55-11.87,2.23-17.81,1.44-12.63,3.24-25.2,5.73-37.67.6-3.02,1.16-6.06,1.75-9.08.06-.29.18-.57.56-.88.12.97.26,1.94.35,2.91,1.35,15.25,3.13,30.43,5.84,45.51,1.12,6.25,2.17,12.52,3.33,18.76.34,1.85.63,3.78,2.29,5.11.3.24.21.96.33,1.59ZM32.41,412.14c-.67-4.31-1.26-8.31-1.91-12.31-.64-3.96-1.02-7.96-1.99-11.88-1.3,7.83-2.4,15.65-3.27,23.62,2.45.19,4.63.36,7.17.56ZM177.78,436c2.51-.74,3.04-1.38,3.02-3.96-.03-3.33-.2-6.67-.22-10-.03-7.1,0-14.2.03-21.3,0-1.36.11-2.72.07-4.07-.06-2.07-.74-2.91-2.74-3.6-.15-.05-.27-.2-.66-.51.52-.2.85-.44,1.17-.42,1.35.07,2.69.21,4.03.33,2.2.2,4.4.38,6.59.62,3.78.41,6.44,2.49,8.29,5.75,1.38,2.45,2.14,5.11,2.6,7.86,1.14,6.83,1.27,13.63-.49,20.39-.52,1.99-1.27,3.87-2.52,5.51-2.06,2.7-4.71,4.27-8.17,4.26-3.25-.02-6.5-.03-9.75-.08-.47,0-1.19.27-1.23-.78ZM186.37,395.33c-.05.79-.1,1.4-.13,2-.46,10-.32,19.99.04,29.98.06,1.73.13,3.46.28,5.18.13,1.57.94,2.17,2.47,2,1.62-.18,2.8-1.09,3.38-2.53.68-1.7,1.3-3.48,1.57-5.29,1.06-7.19.79-14.4-.07-21.59-.29-2.39-.84-4.74-2.01-6.88-1.16-2.11-2.94-3.01-5.52-2.87ZM385.78,437.21c-.24-.63-.34-1.21.43-1.34,1.83-.3,2.23-1.63,2.15-3.13-.11-1.9-.39-3.8-.68-5.68-.38-2.5-.83-4.98-1.27-7.63-2.75-.22-5.44.28-8.33.47-.38,2.23-.82,4.39-1.1,6.58-.23,1.77-.39,3.56-.38,5.34,0,1.77.3,3.48,2.44,4.07.31.09.45.79.83,1.51-2.79.21-5.21.11-7.57.16-.48-.63-.5-1.17,0-1.58,1.42-1.2,1.9-2.86,2.22-4.56.87-4.6,1.71-9.21,2.5-13.83,2.18-12.83,4.32-25.66,6.48-38.48.32-1.87.64-3.74,1.29-5.65.18.92.39,1.84.54,2.77,2.75,16.73,5.48,33.46,8.24,50.19.29,1.76.65,3.52,1.07,5.26.34,1.42.59,2.9,1.92,3.88.31.23.27.95.44,1.64h-11.21ZM382.42,395.54c-.89,1.98-3.7,19.38-3.41,21.03,2.23-.42,4.54-.23,6.83-.78-1.16-6.85-2.27-13.44-3.43-20.25ZM273.53,420.05c2,.34,2.54,1.77,2.59,3.5.1,3.58.12,7.16.22,10.74.03.94-.38,1.47-1.17,1.88-2.16,1.13-4.29.84-6.07-.92-1.68-1.67-2.49-3.81-2.98-6.06-1.61-7.3-1.86-14.68-.92-22.09.31-2.43.9-4.85,1.65-7.19.45-1.43,1.27-2.83,2.21-4.01,2.11-2.66,5.17-2.78,7.47-.3,1.02,1.11,1.91,2.45,2.48,3.84.81,1.98,1.26,4.11,1.86,6.18.09.31.2.62.39,1.22.18-.46.28-.6.28-.75.09-5.06.18-10.12.26-15.18,0-.03-.09-.07-.14-.09-.05-.02-.11-.01-.24-.03-.07.21-.16.43-.23.66-.98,3.01-1.21,3.12-3.87,1.36-1.54-1.02-3.14-1.6-5.01-1.49-2.45.15-4.59,1.05-6.22,2.82-1.36,1.48-2.61,3.12-3.61,4.87-3.27,5.75-4.2,12.06-3.93,18.58.21,5.05,1.17,9.92,3.61,14.41,1.1,2.02,2.48,3.82,4.26,5.29,1.21,1,2.59,1.61,4.15,1.84,3.53.53,6.65-.48,9.58-2.41,1.24-.81,1.82-1.74,1.75-3.32-.15-3.33-.09-6.67-.08-10,0-1.63.36-3.08,2.18-3.66.21-.07.29-.53.57-1.11-3.99.15-7.68.29-11.71.44.37.55.48.93.66.96ZM156.77,392.31c3.19.23,5.03,2.13,5.87,5.03.46,1.58.58,3.27.84,4.91.09.57.17,1.13.25,1.7.74-2.06,1.03-11.85.63-13.27-6.38-.85-12.78-1.71-19.18-2.56-.07.14-.13.29-.2.43.25.25.47.67.76.73,1.59.36,2.17,1.53,2.35,2.95.13.97.14,1.97.1,2.95-.44,9.82-.32,19.63.02,29.45.09,2.53.15,5.06.1,7.59-.04,2.05-.54,2.59-2.56,3.22-.58.18-.62.49-.35.94,2.77.37,18.69.31,20.09-.11.04-.87.08-1.78.14-2.7.06-.99.16-1.97.21-2.96.05-.92.07-1.85.1-2.78.04-.99.12-1.98.1-2.96-.02-.83.46-1.72-.33-2.74-.18,1.04-.24,1.85-.46,2.61-.55,1.89-.97,3.85-1.81,5.6-1.47,3.09-4.18,4.26-7.5,3.65-.74-.14-1.26-.52-1.49-1.21-.19-.58-.34-1.19-.36-1.8-.23-5.3-.42-10.61-.62-15.92-.01-.35.08-.7.13-1.11,1.77-.03,2.96.82,3.44,2.35.67,2.17,1.11,4.41,1.64,6.62.14.6-.02,1.3.53,1.78v-23.59c-.13-.01-.26-.03-.39-.04-.17,1.05-.28,2.11-.51,3.14-.37,1.68-.69,3.39-1.27,5-.63,1.72-1.68,2.18-3.57,1.88-.18-6.31.11-12.64.46-19.14,1.05.12,1.94.27,2.84.33ZM84.73,377.6c1.95.57,2.4,2.15,2.54,3.88.11,1.35.1,2.71.08,4.07-.11,6.48-.35,12.96-.33,19.44.01,5.68.32,11.35.46,17.03.06,2.41.09,4.82,0,7.22-.05,1.34-.24,2.72-.65,3.99-.47,1.47-1.87,1.58-2.82.34-.68-.88-.83-1.92-.68-2.99.17-1.16.47-2.3.67-3.45.42-2.35.32-4.68-.51-6.93-.21-.57-.5-1.15-.89-1.6-.71-.82-1.58-.79-2.12.15-.48.84-.79,1.8-.99,2.75-.52,2.52-.21,5.04.22,7.54.37,2.14,1.03,4.2,2.15,6.07,2.28,3.79,5.96,3.85,8.35.15,1.08-1.68,1.77-3.53,2.09-5.49.65-3.91.61-7.86.57-11.82-.1-8.64-.13-17.28-.13-25.93,0-2.78.17-5.55.35-8.33.17-2.67.81-3.36,3.23-3.82.23-.64.08-1.06-.65-1.21-1.32-.28-2.63-.6-3.95-.9-2.44-.55-4.87-1.09-7.42-1.66-.12.69-.36,1.24.42,1.47ZM216.36,396.61c2.22.09,3.69,1.36,4.44,3.34.58,1.54.84,3.2,1.22,4.82.14.62.21,1.26.31,1.89.72-2.25.86-10.87.42-12.39-6.35.04-12.73-.47-19.16-.11.19.38.41.65.68.73,1.69.54,2.22,1.11,2.38,2.82.06.67,0,1.36.01,2.03.03,9.13.07,18.27.11,27.4,0,1.97.12,3.95.06,5.92-.05,1.69-.72,3.1-2.66,3.13-.19,0-.37.2-.61.35.19.25.29.5.39.5,6.59.19,13.19.36,19.72.53.64-2.42,1.07-11.89.57-13.59-.17.86-.24,1.46-.42,2.02-.61,1.93-1.09,3.93-1.95,5.74-.98,2.07-2.79,3.22-5.15,3.33-3.49.16-4.2-.47-4.31-4.05-.14-4.32-.23-8.64-.33-12.96-.01-.47.08-.94.12-1.45,1.72-.07,2.8.69,3.48,2.08.99,2.03,1.38,4.2,1.59,6.43.04.46-.24,1.14.51,1.37v-22.06c-.15-.02-.3-.03-.44-.05-.15.99-.24,1.99-.47,2.96-.37,1.62-.69,3.27-1.29,4.8-.65,1.68-1.79,2.16-3.68,1.78.12-5.68.24-11.41.37-17.32,1.57,0,2.84-.04,4.11,0ZM286.46,392.14c1.88.57,2.17.87,2.27,2.8.07,1.48.03,2.96.04,4.44.06,8.64.11,17.29.21,25.93.02,1.54.21,3.08.46,4.6.43,2.59,1.29,5.02,3.04,7.04,3.01,3.49,8.3,3.23,10.96-.54,1.22-1.73,2.03-3.66,2.45-5.74.72-3.53.74-7.11.74-10.69.01-7.41,0-14.82.03-22.23,0-1.35.1-2.72.27-4.06.23-1.83.73-3.52,2.71-4.28.21-.08.29-.54.57-1.13-2.71.34-5.13.63-7.54.99-.25.04-.44.53-.72.89,3.09.8,2.85,1.69,3.26,3.81.14.72.1,1.48.1,2.22,0,8.71,0,17.41-.06,26.12-.01,2.03-.16,4.07-.42,6.09-.29,2.22-.96,4.35-2.52,6.05-1.79,1.95-4.36,1.86-5.79-.36-.78-1.21-1.27-2.66-1.62-4.07-.32-1.3-.36-2.69-.37-4.05-.04-9.69-.04-19.39-.03-29.08,0-.92.14-1.84.23-2.76.17-1.6.72-2.87,2.53-3.16.29-.05.52-.45.82-.73-.32-.21-.43-.33-.52-.33-3.66.37-7.32.74-10.97,1.16-.24.03-.44.41-.7.69.29.2.42.34.58.39ZM127,437.41c.1-.27.2-.55.31-.82.14-.34.25-.7.43-1.02.59-1.02,1.12-1.14,2.09-.47.45.31.85.71,1.29,1.05,3.03,2.39,6.16,1.96,8.43-1.18,1.25-1.72,2.04-3.67,2.44-5.75,1.53-7.85.35-15.11-4.86-21.42-1.37-1.66-2.83-3.26-4.11-4.99-.97-1.33-1.92-2.75-2.52-4.28-1.18-2.99-1.11-6.05.4-8.95,1.06-2.03,3.05-2.4,4.73-.86.75.69,1.38,1.58,1.89,2.47,1.36,2.39,2.01,5.02,2.36,7.73.15,1.12.3,2.23.47,3.45.27-.21.43-.27.43-.33.14-5.06.26-10.11.38-15.17,0-.03-.08-.07-.13-.08-.05-.01-.11,0-.15,0-.33.88-.66,1.75-1.09,2.91-.76-.66-1.28-1.07-1.75-1.53-.62-.6-1.15-1.29-1.8-1.85-2.4-2.04-5.18-1.77-7.03.78-.78,1.08-1.48,2.31-1.87,3.58-2.58,8.4-2.01,16.34,3.72,23.41,1.43,1.77,2.96,3.46,4.46,5.18,1.53,1.76,2.59,3.77,3.03,6.05.53,2.72.51,5.42-.89,7.92-1.26,2.24-3.58,2.69-5.37.86-1.14-1.16-2.05-2.62-2.79-4.08-1.47-2.88-2.08-6.05-2.61-9.22-.12-.7-.25-1.4-.38-2.09-.13.02-.27.04-.4.06.16,6.19.31,12.38.47,18.56.14.03.28.05.42.08ZM324.05,385.7c.44,2.29.86,4.58,1.33,6.86,2.58,12.75,5.16,25.49,7.76,38.23.21,1.03.48,2.04.79,3.04.32,1.06.69,2.09,1.71,2.76.31.2.38.76.71,1.48-3.79,0-7.22,0-10.65,0-.55,0-1-.15-.72-1,.22-.06.5-.12.78-.21,1.36-.44,1.81-.96,1.85-2.39.02-.79-.1-1.6-.24-2.38-.55-2.9-1.14-5.78-1.74-8.83-1.47.07-2.8.16-4.12.19-1.34.03-2.68,0-4.07,0-.21.69-.38,1.14-.47,1.61-.36,1.88-.73,3.75-1.01,5.64-.14.91-.15,1.85-.11,2.77.08,1.57.54,2.9,2.3,3.38.29.08.48.56.71.85-.29.17-.57.48-.86.49-2.19.04-4.39.02-6.5.02-.42-.64-.33-1.06.16-1.4,1.24-.87,1.79-2.18,2.1-3.58.99-4.58,1.93-9.16,2.88-13.75,2.25-10.86,4.49-21.73,6.74-32.59.09-.42.23-.82.35-1.23.11.02.23.03.34.05ZM321.53,403.95c-.15.02-.31.03-.46.05-1.05,5.59-2.28,11.14-3.22,16.97,2.51-.17,4.73-.32,7.15-.48-1.19-5.65-2.33-11.1-3.48-16.54ZM344.69,438.96c.08-.33.19-.66.25-1,1.95-10.68,3.86-21.37,5.85-32.05,1.17-6.25,2.43-12.47,3.71-18.7.4-1.93,1-3.81,2.41-5.33.3-.32.33-.91.58-1.68-2.59.52-4.8.98-7.01,1.41-.73.14-.89.54-.67,1.2,2.31.68,2.88,1.43,2.92,3.94.01.62,0,1.24-.08,1.85-.14,1.16-.31,2.33-.51,3.48-1.65,9.17-3.32,18.33-4.98,27.5-.05.25-.19.49-.44,1.07-.19-.66-.3-.93-.35-1.21-.56-2.84-1.14-5.69-1.67-8.54-1.35-7.34-2.7-14.68-3.99-22.04-.45-2.58,0-3.39,2.26-4.57.61-.32.6-.66.26-1.31-3.56.63-7.15,1.27-11.08,1.96.37.64.5,1.17.81,1.34.92.49,1.27,1.29,1.48,2.22.19.84.42,1.68.58,2.52,2.6,13.57,5.19,27.15,7.78,40.72.46,2.41.96,4.82,1.44,7.23.15,0,.3-.01.45-.02ZM361.64,383.97c.1.79.16,1.6.16,2.4,0,14.7.01,29.39,0,44.09,0,.92-.08,1.85-.2,2.77-.2,1.55-.66,2.9-2.5,3.2-.68.11-.59.63-.34,1.15h11.73c.08-.3.16-.47.16-.64,0-.18-.05-.35-.08-.52-2.09-.62-2.66-1.24-3.01-3.43-.12-.73-.16-1.47-.16-2.21,0-15.44-.01-30.88,0-46.31,0-.92.15-1.85.36-2.74.29-1.24.85-2.33,2.21-2.72.82-.24.81-.74.47-1.49-.84.16-1.62.3-2.39.47-2.82.6-5.63,1.23-8.45,1.81-.7.14-1.19.35-.91,1.31,2.16.27,2.66.76,2.94,2.87ZM248.66,427.72c.06-1.6.03-3.19.03-4.79,0-.03-.08-.07-.13-.08-.06-.01-.12,0-.29,0-.08.38-.16.79-.25,1.2-.49,2.23-.83,4.5-1.49,6.67-1.22,4-2.56,4.87-6.69,4.8-.06,0-.12,0-.18,0-2.73-.05-3.2-.49-3.38-3.19-.01-.18-.02-.37-.03-.55-.1-10.24-.2-20.48-.28-30.72,0-1.11.11-2.22.26-3.32.19-1.42.97-2.36,2.44-2.64.37-.07.72-.24,1.17-.39-.22-.31-.32-.57-.41-.57-4,.04-8,.1-12.41.17.47.54.61.85.82.91,2.1.66,2.51,1.15,2.62,3.34.03.62.02,1.23.02,1.85.04,10.3.08,20.61.12,30.91,0,.86-.02,1.73-.1,2.59-.18,1.89-.5,2.25-2.37,2.71-.53.13-.76.34-.43,1.03,6.72.13,13.51.26,20.5.39.16-3.56.33-6.94.45-10.31ZM156.5,383.66c1.6-2.9,2.91-4.8,4.52-7.7.16-.29.22-.63.37-1.05-1.69-.29-3.22-.56-4.89-.85-.81,3.91-1.24,6.63-2,10.32,1.15.63,1.58.04,2-.72Z"/>
      <path class="cls-5" d="M.53,461.06v-18.27h15.24v3.09H4.68v4.05h10.32v3.08H4.68v4.97h11.48v3.08H.53ZM19.63,461.06v-18.27h6.21l3.73,12.46,3.69-12.46h6.22v18.27h-3.86v-14.38l-4.08,14.38h-4l-4.07-14.38v14.38h-3.86ZM43.6,461.06v-18.27h6.66c2.52,0,4.17.09,4.93.27,1.18.27,2.16.87,2.96,1.79.79.92,1.19,2.1,1.19,3.56,0,1.12-.23,2.06-.69,2.83-.46.76-1.04,1.36-1.75,1.8-.71.44-1.42.72-2.15.87-.99.17-2.43.26-4.3.26h-2.71v6.89h-4.15ZM47.75,445.89v5.18h2.27c1.63,0,2.73-.09,3.28-.29.55-.19.98-.49,1.3-.9.31-.41.47-.88.47-1.42,0-.67-.22-1.21-.66-1.65-.44-.43-1-.7-1.67-.81-.5-.08-1.49-.12-2.99-.12h-2ZM62.76,461.06v-18.27h8.73c2.2,0,3.79.16,4.79.49s1.79.91,2.39,1.75c.6.84.9,1.8.9,2.88,0,1.37-.45,2.5-1.36,3.4-.91.89-2.26,1.46-4.07,1.69.9.47,1.64.98,2.22,1.53s1.37,1.54,2.36,2.97l2.51,3.56h-4.96l-3-3.97c-1.07-1.42-1.79-2.32-2.19-2.69-.39-.37-.81-.62-1.25-.76-.44-.14-1.14-.21-2.09-.21h-.84v7.63h-4.15ZM66.91,450.52h3.07c1.99,0,3.23-.08,3.73-.22.5-.15.88-.41,1.16-.77.28-.37.42-.82.42-1.37,0-.62-.18-1.11-.55-1.49s-.89-.62-1.56-.72c-.34-.04-1.35-.06-3.03-.06h-3.24v4.64ZM83.48,461.06v-18.27h15.24v3.09h-11.09v4.05h10.32v3.08h-10.32v4.97h11.48v3.08h-15.63ZM101.58,455.12l4.04-.35c.24,1.21.74,2.09,1.48,2.65.74.57,1.75.85,3.01.85,1.34,0,2.34-.25,3.02-.75s1.02-1.09,1.02-1.76c0-.43-.14-.8-.43-1.1-.29-.3-.78-.57-1.49-.79-.49-.15-1.59-.42-3.32-.8-2.22-.49-3.79-1.09-4.68-1.81-1.26-1-1.89-2.23-1.89-3.68,0-.93.3-1.8.89-2.61.59-.81,1.45-1.43,2.57-1.85,1.12-.42,2.46-.64,4.04-.64,2.58,0,4.52.5,5.83,1.51s1.99,2.35,2.05,4.02l-4.15.16c-.18-.94-.56-1.61-1.14-2.02s-1.46-.62-2.63-.62-2.15.22-2.83.66c-.44.28-.66.66-.66,1.13,0,.43.21.8.62,1.11.52.39,1.79.8,3.81,1.22,2.02.42,3.51.86,4.48,1.31.97.45,1.72,1.07,2.27,1.86s.82,1.75.82,2.91c0,1.05-.33,2.03-.98,2.94s-1.58,1.59-2.78,2.04c-1.2.44-2.69.67-4.47.67-2.6,0-4.59-.53-5.99-1.6s-2.22-2.62-2.5-4.67ZM140.31,461.06h-4.51l-1.79-4.15h-8.21l-1.7,4.15h-4.4l8-18.27h4.39l8.23,18.27ZM132.67,453.84l-2.83-6.78-2.78,6.78h5.61ZM148.37,455.12l4.04-.35c.24,1.21.74,2.09,1.48,2.65.74.57,1.75.85,3.01.85,1.34,0,2.34-.25,3.02-.75s1.02-1.09,1.02-1.76c0-.43-.14-.8-.43-1.1-.29-.3-.78-.57-1.49-.79-.49-.15-1.59-.42-3.32-.8-2.22-.49-3.79-1.09-4.68-1.81-1.26-1-1.89-2.23-1.89-3.68,0-.93.3-1.8.89-2.61.59-.81,1.45-1.43,2.57-1.85,1.12-.42,2.46-.64,4.04-.64,2.58,0,4.52.5,5.83,1.51s1.99,2.35,2.05,4.02l-4.15.16c-.18-.94-.56-1.61-1.14-2.02s-1.46-.62-2.63-.62-2.15.22-2.83.66c-.44.28-.66.66-.66,1.13,0,.43.21.8.62,1.11.52.39,1.79.8,3.81,1.22,2.02.42,3.51.86,4.48,1.31.97.45,1.72,1.07,2.27,1.86s.82,1.75.82,2.91c0,1.05-.33,2.03-.98,2.94s-1.58,1.59-2.78,2.04c-1.2.44-2.69.67-4.47.67-2.6,0-4.59-.53-5.99-1.6s-2.22-2.62-2.5-4.67ZM167.73,452.04c0-1.86.31-3.42.94-4.69.47-.93,1.1-1.77,1.91-2.5s1.69-1.29,2.66-1.64c1.28-.48,2.76-.72,4.43-.72,3.03,0,5.45.83,7.27,2.5,1.82,1.67,2.73,3.99,2.73,6.96s-.9,5.26-2.71,6.92c-1.8,1.67-4.21,2.5-7.23,2.5s-5.49-.83-7.29-2.49c-1.8-1.66-2.71-3.94-2.71-6.85ZM172.01,451.92c0,2.07.54,3.64,1.61,4.7,1.07,1.07,2.44,1.6,4.09,1.6s3.01-.53,4.07-1.59c1.06-1.06,1.59-2.65,1.59-4.77s-.52-3.66-1.55-4.69c-1.03-1.03-2.4-1.54-4.11-1.54s-3.09.52-4.14,1.56c-1.05,1.04-1.57,2.62-1.57,4.72ZM204.05,454.35l4.02,1.13c-.62,1.99-1.64,3.47-3.08,4.44-1.44.97-3.25,1.45-5.46,1.45-2.73,0-4.97-.83-6.73-2.49s-2.64-3.92-2.64-6.8c0-3.04.88-5.4,2.65-7.08,1.77-1.68,4.09-2.52,6.97-2.52,2.51,0,4.56.66,6.13,1.98.93.78,1.63,1.9,2.1,3.36l-4.11.87c-.24-.95-.75-1.69-1.52-2.24-.77-.55-1.71-.82-2.81-.82-1.52,0-2.76.49-3.71,1.46-.95.97-1.42,2.55-1.42,4.72,0,2.31.47,3.95,1.4,4.93s2.15,1.47,3.64,1.47c1.1,0,2.05-.31,2.85-.93.79-.62,1.36-1.6,1.71-2.94ZM211.51,461.06v-18.27h4.15v18.27h-4.15ZM238.15,461.06h-4.51l-1.79-4.15h-8.21l-1.7,4.15h-4.4l8-18.27h4.39l8.23,18.27ZM230.51,453.84l-2.83-6.78-2.78,6.78h5.61ZM240.46,461.06v-18.12h4.15v15.04h10.32v3.08h-14.47ZM265.33,442.8h7.58c1.71,0,3.01.12,3.91.35,1.21.32,2.24.88,3.1,1.68.86.81,1.51,1.79,1.96,2.96.45,1.17.67,2.61.67,4.32,0,1.5-.21,2.8-.63,3.89-.51,1.33-1.25,2.4-2.2,3.23-.72.62-1.69,1.11-2.92,1.46-.92.26-2.14.39-3.67.39h-7.81v-18.27ZM269.48,445.89v12.1h3.1c1.16,0,2-.06,2.51-.17.67-.15,1.23-.4,1.67-.76.44-.36.81-.94,1.09-1.76.28-.82.42-1.93.42-3.35s-.14-2.5-.42-3.25c-.28-.76-.67-1.35-1.18-1.77-.5-.42-1.15-.71-1.92-.86-.58-.12-1.71-.17-3.41-.17h-1.86ZM286.08,461.06v-18.27h15.24v3.09h-11.09v4.05h10.32v3.08h-10.32v4.97h11.48v3.08h-15.63ZM305.34,461.06v-18.12h4.15v15.04h10.32v3.08h-14.47ZM330.22,461.06v-18.27h15.24v3.09h-11.09v4.05h10.32v3.08h-10.32v4.97h11.48v3.08h-15.63ZM348.32,455.12l4.04-.35c.24,1.21.74,2.09,1.48,2.65.74.57,1.75.85,3.01.85,1.34,0,2.34-.25,3.02-.75.68-.5,1.02-1.09,1.02-1.76,0-.43-.14-.8-.43-1.1-.29-.3-.78-.57-1.49-.79-.49-.15-1.59-.42-3.32-.8-2.22-.49-3.79-1.09-4.68-1.81-1.26-1-1.89-2.23-1.89-3.68,0-.93.3-1.8.89-2.61.59-.81,1.45-1.43,2.57-1.85,1.12-.42,2.46-.64,4.04-.64,2.58,0,4.52.5,5.83,1.51,1.3,1,1.99,2.35,2.05,4.02l-4.15.16c-.18-.94-.56-1.61-1.14-2.02-.58-.41-1.46-.62-2.63-.62s-2.15.22-2.83.66c-.44.28-.66.66-.66,1.13,0,.43.21.8.62,1.11.52.39,1.79.8,3.81,1.22,2.02.42,3.51.86,4.48,1.31.97.45,1.72,1.07,2.27,1.86s.82,1.75.82,2.91c0,1.05-.33,2.03-.98,2.94-.65.91-1.58,1.59-2.78,2.04s-2.69.67-4.47.67c-2.6,0-4.59-.53-5.99-1.6s-2.22-2.62-2.5-4.67ZM373.15,461.06v-15.18h-6.1v-3.09h16.33v3.09h-6.08v15.18h-4.15ZM402.46,461.06h-4.51l-1.79-4.15h-8.21l-1.7,4.15h-4.4l8-18.27h4.39l8.23,18.27ZM394.82,453.84l-2.83-6.78-2.78,6.78h5.61ZM404.65,442.8h7.58c1.71,0,3.01.12,3.91.35,1.21.32,2.24.88,3.1,1.68s1.51,1.79,1.96,2.96c.45,1.17.67,2.61.67,4.32,0,1.5-.21,2.8-.63,3.89-.51,1.33-1.25,2.4-2.2,3.23-.72.62-1.69,1.11-2.92,1.46-.92.26-2.14.39-3.67.39h-7.81v-18.27ZM408.8,445.89v12.1h3.1c1.16,0,2-.06,2.51-.17.67-.15,1.23-.4,1.67-.76.44-.36.81-.94,1.09-1.76.28-.82.42-1.93.42-3.35s-.14-2.5-.42-3.25c-.28-.76-.67-1.35-1.18-1.77-.5-.42-1.15-.71-1.92-.86-.58-.12-1.71-.17-3.41-.17h-1.86ZM424.55,452.04c0-1.86.31-3.42.94-4.69.47-.93,1.11-1.77,1.91-2.5.81-.74,1.69-1.29,2.66-1.64,1.28-.48,2.76-.72,4.43-.72,3.03,0,5.45.83,7.27,2.5,1.82,1.67,2.73,3.99,2.73,6.96s-.9,5.26-2.71,6.92c-1.8,1.67-4.21,2.5-7.23,2.5s-5.49-.83-7.29-2.49-2.71-3.94-2.71-6.85ZM428.83,451.92c0,2.07.54,3.64,1.61,4.7,1.07,1.07,2.44,1.6,4.09,1.6s3.01-.53,4.07-1.59c1.06-1.06,1.59-2.65,1.59-4.77s-.52-3.66-1.55-4.69c-1.03-1.03-2.4-1.54-4.12-1.54s-3.09.52-4.13,1.56c-1.05,1.04-1.57,2.62-1.57,4.72Z"/>
      <path class="cls-5" d="M116.22,373.29v-27.72h6.3v10.91h12.34v-10.91h6.3v27.72h-6.3v-12.12h-12.34v12.12h-6.3ZM146.38,359.6c0-2.82.47-5.19,1.42-7.11.71-1.41,1.68-2.68,2.9-3.8s2.57-1.95,4.03-2.5c1.94-.73,4.18-1.1,6.72-1.1,4.59,0,8.27,1.27,11.03,3.8,2.76,2.53,4.14,6.06,4.14,10.57s-1.37,7.98-4.11,10.5c-2.74,2.53-6.39,3.79-10.97,3.79s-8.32-1.26-11.06-3.77-4.1-5.98-4.1-10.39ZM152.87,359.42c0,3.14.81,5.52,2.45,7.14,1.63,1.62,3.7,2.43,6.21,2.43s4.57-.8,6.18-2.41c1.61-1.61,2.41-4.02,2.41-7.23s-.78-5.55-2.35-7.11c-1.57-1.56-3.65-2.34-6.24-2.34s-4.69.79-6.27,2.37-2.38,3.97-2.38,7.16ZM179.94,364.27l6.12-.53c.37,1.83,1.12,3.17,2.24,4.03,1.13.86,2.65,1.29,4.56,1.29,2.03,0,3.55-.38,4.58-1.14,1.03-.76,1.54-1.65,1.54-2.67,0-.66-.22-1.21-.65-1.67-.43-.46-1.19-.86-2.27-1.2-.74-.23-2.42-.63-5.04-1.21-3.38-.74-5.74-1.66-7.1-2.74-1.91-1.53-2.87-3.38-2.87-5.58,0-1.41.45-2.73,1.35-3.96.9-1.23,2.2-2.17,3.89-2.81,1.69-.64,3.74-.96,6.14-.96,3.91,0,6.86.76,8.84,2.29s3.02,3.56,3.12,6.11l-6.29.25c-.27-1.42-.85-2.45-1.73-3.07-.89-.62-2.22-.94-3.99-.94s-3.26.33-4.3,1c-.67.43-1,1-1,1.72,0,.66.31,1.22.94,1.68.79.59,2.72,1.21,5.79,1.85,3.06.64,5.33,1.31,6.8,1.99,1.47.69,2.62,1.63,3.45,2.82.83,1.19,1.24,2.66,1.24,4.41,0,1.59-.5,3.08-1.49,4.46-.99,1.39-2.4,2.42-4.21,3.09-1.81.67-4.08,1.01-6.79,1.01-3.94,0-6.97-.81-9.08-2.43-2.11-1.62-3.38-3.98-3.79-7.08ZM210.59,373.29v-27.72h10.1c3.83,0,6.32.14,7.49.42,1.79.42,3.28,1.32,4.49,2.71,1.21,1.39,1.81,3.19,1.81,5.4,0,1.7-.35,3.13-1.04,4.29-.7,1.16-1.58,2.07-2.65,2.73-1.07.66-2.16,1.1-3.26,1.31-1.5.26-3.68.4-6.53.4h-4.1v10.46h-6.3ZM216.89,350.26v7.86h3.45c2.48,0,4.14-.14,4.98-.43.84-.29,1.49-.74,1.97-1.36.47-.62.71-1.34.71-2.16,0-1.01-.33-1.84-1-2.5-.67-.66-1.51-1.07-2.53-1.23-.75-.13-2.26-.19-4.53-.19h-3.04ZM239.45,373.29v-27.72h6.3v27.72h-6.3ZM258.77,373.29v-23.03h-9.25v-4.69h24.78v4.69h-9.23v23.03h-6.3ZM303.24,373.29h-6.85l-2.72-6.3h-12.46l-2.57,6.3h-6.68l12.14-27.72h6.66l12.48,27.72ZM291.65,362.33l-4.29-10.29-4.21,10.29h8.51ZM306.75,373.29v-27.49h6.29v22.82h15.65v4.67h-21.95Z"/>
    </g>
    <path class="cls-7" d="M359.09,332H85.91c-17.09,0-31-13.91-31-31V31C54.91,13.91,68.82,0,85.91,0h273.18C376.18,0,390.09,13.91,390.09,31v270c0,17.09-13.91,31-31,31ZM85.91,2c-15.99,0-29,13.01-29,29v270c0,15.99,13.01,29,29,29h273.18c15.99,0,29-13.01,29-29V31c0-15.99-13.01-29-29-29H85.91Z"/>
  </g>
</svg>